name analog
datacolumns 19
datarows 28
range 0.224 0.23750000000000002
endheader
time	ground_force_vx	ground_force_vy	ground_force_vz	ground_force_px	ground_force_py	ground_force_pz	l_ground_force_vx	l_ground_force_vy	l_ground_force_vz	l_ground_force_px	l_ground_force_py	l_ground_force_pz	ground_torque_x	ground_torque_y	ground_torque_z	l_ground_torque_x	l_ground_torque_y	l_ground_torque_z
0.224	-0.0	-0.0	-0.0	2.5833566188812256	72.82140350341797	-416.0311279296875	-3.2727200984954834	-76.3251953125	-440.6217956542969	-0.0	-0.0	-0.0	-0.0	-0.0	-0.0	70490.6796875	-24729.048828125	1578.22216796875
0.2245	-0.0	-0.0	-0.0	3.739665985107422	73.33460998535156	-417.4373779296875	-3.7240169048309326	-76.1351318359375	-437.5231323242188	-0.0	-0.0	-0.0	-0.0	-0.0	-0.0	70592.0	-24757.40625	1697.299560546875
0.225	-0.0	-0.0	-0.0	4.458792686462402	72.28129577636719	-417.4518127441406	-3.722302198410034	-75.3348617553711	-435.3711242675781	-0.0	-0.0	-0.0	-0.0	-0.0	-0.0	70095.0625	-24764.923828125	1581.8568115234375
0.2255	-0.0	-0.0	-0.0	5.448604106903076	71.39851379394531	-417.8185729980469	-3.811096668243408	-74.80329132080078	-433.2767028808594	-0.0	-0.0	-0.0	-0.0	-0.0	-0.0	69736.71875	-24941.365234375	1579.5679931640625
0.226	-0.0	-0.0	-0.0	5.881451606750488	71.04175567626953	-417.4459228515625	-3.193588256835937	-73.84186553955078	-429.7926330566406	-0.0	-0.0	-0.0	-0.0	-0.0	-0.0	69739.640625	-24733.53125	1522.055908203125
0.2265	-0.0	-0.0	-0.0	6.610988140106201	70.77111053466797	-416.7647399902344	-2.924232244491577	-72.33706665039062	-424.9492492675781	-0.0	-0.0	-0.0	-0.0	-0.0	-0.0	69126.203125	-24833.015625	1494.0296630859375
0.227	-0.0	-0.0	-0.0	7.304712295532227	70.85415649414062	-416.0638732910156	-2.500961780548096	-71.10358428955078	-422.4917602539063	-0.0	-0.0	-0.0	-0.0	-0.0	-0.0	68593.1640625	-24756.212890625	1611.68310546875
0.2275	-0.0	-0.0	-0.0	7.407326221466064	70.58272552490234	-415.6984558105469	-2.757390022277832	-70.56024169921875	-420.3843383789063	-0.0	-0.0	-0.0	-0.0	-0.0	-0.0	68368.234375	-24543.921875	1670.474853515625
0.228	-0.0	-0.0	-0.0	7.762699127197266	70.14701080322266	-415.3286437988281	-3.280869960784912	-69.15303802490234	-417.5965881347656	-0.0	-0.0	-0.0	-0.0	-0.0	-0.0	68024.40625	-24682.201171875	1436.0289306640625
0.2285	-0.0	-0.0	-0.0	7.934518337249756	70.06171417236328	-416.0201416015625	-2.9261066913604736	-68.35293579101562	-413.3901977539063	-0.0	-0.0	-0.0	-0.0	-0.0	-0.0	67582.1328125	-24782.65234375	1581.51318359375
0.229	-0.0	-0.0	-0.0	7.763801097869873	69.87574768066406	-413.941650390625	-2.670343399047852	-66.59199523925781	-410.9362487792969	-0.0	-0.0	-0.0	-0.0	-0.0	-0.0	67279.2109375	-24708.3046875	1522.8548583984375
0.2295	-0.0	-0.0	-0.0	7.586496353149414	69.78791046142578	-413.564208984375	-3.1886022090911865	-65.80089569091797	-406.0584411621094	-0.0	-0.0	-0.0	-0.0	-0.0	-0.0	66643.6015625	-24446.525390625	1494.3016357421875
0.23	-0.0	-0.0	-0.0	7.761314392089844	69.61083984375	-411.1014404296875	-2.754701375961304	-64.915283203125	-402.5626525878906	-0.0	-0.0	-0.0	-0.0	-0.0	-0.0	65995.375	-24363.767578125	1435.09033203125
0.2305	-0.0	-0.0	-0.0	8.02570915222168	68.63041687011719	-409.688720703125	-2.486151933670044	-63.85546112060547	-398.3731689453125	-0.0	-0.0	-0.0	-0.0	-0.0	-0.0	65862.84375	-24116.63671875	1553.8304443359375
0.231	-0.0	-0.0	-0.0	8.387823104858398	68.62533569335938	-407.22857666015625	-2.751098394393921	-62.97654342651367	-393.8513793945313	-0.0	-0.0	-0.0	-0.0	-0.0	-0.0	64765.45703125	-24190.072265625	1525.6448974609375
0.2315	-0.0	-0.0	-0.0	8.293766021728516	68.00181579589844	-405.1233825683594	-2.752002954483032	-62.35511016845703	-391.7519836425781	-0.0	-0.0	-0.0	-0.0	-0.0	-0.0	64267.2421875	-23901.34375	1702.060546875
0.232	-0.0	-0.0	-0.0	8.20826244354248	67.47439575195312	-406.1356506347656	-2.481074810028076	-61.82330322265625	-386.8711242675781	-0.0	-0.0	-0.0	-0.0	-0.0	-0.0	63703.3046875	-23426.017578125	1615.630126953125
0.2325	-0.0	-0.0	-0.0	7.942995071411133	67.65160369873047	-401.5881958007813	-2.483039379119873	-61.56021881103516	-385.45318603515625	-0.0	-0.0	-0.0	-0.0	-0.0	-0.0	63419.82421875	-23422.935546875	1466.6650390625
0.233	-0.0	-0.0	-0.0	8.03271484375	67.20658874511719	-400.86224365234375	-3.1951920986175537	-61.648536682128906	-382.6638488769531	-0.0	-0.0	-0.0	-0.0	-0.0	-0.0	63357.578125	-23636.607421875	1701.242431640625
0.2335	-0.0	-0.0	-0.0	8.117444038391113	67.1144790649414	-400.491943359375	-3.4589602947235107	-61.38735961914063	-380.22015380859375	-0.0	-0.0	-0.0	-0.0	-0.0	-0.0	62749.09375	-23421.255859375	1701.4449462890625
0.234	-0.0	-0.0	-0.0	8.117525100708008	66.57536315917969	-395.9197387695313	-3.90531587600708	-61.56225204467773	-379.8876647949219	-0.0	-0.0	-0.0	-0.0	-0.0	-0.0	62562.62109375	-23449.197265625	1613.56298828125
0.23450000000000001	-0.0	-0.0	-0.0	8.295397758483887	66.04739379882812	-392.7337646484375	-4.522972583770752	-61.47253036499024	-377.779541015625	-0.0	-0.0	-0.0	-0.0	-0.0	-0.0	62355.1953125	-23715.154296875	1701.25634765625
0.23500000000000001	-0.0	-0.0	-0.0	7.315790176391602	65.50768280029297	-390.6211853027344	-4.43207311630249	-61.471317291259766	-378.1312255859375	-0.0	-0.0	-0.0	-0.0	-0.0	-0.0	62621.77734375	-23826.263671875	1643.3863525390625
0.23550000000000001	-0.0	-0.0	-0.0	6.693029403686523	64.4412841796875	-384.2615356445313	-4.701671600341797	-61.473876953125	-378.1331787109375	-0.0	-0.0	-0.0	-0.0	-0.0	-0.0	63083.98046875	-24130.240234375	1582.7333984375
0.23600000000000002	-0.0	-0.0	-0.0	5.801525592803955	64.35215759277344	-378.9733581542969	-5.146137714385986	-61.915321350097656	-380.9226379394531	-0.0	-0.0	-0.0	-0.0	-0.0	-0.0	63043.98828125	-24445.02734375	1672.0738525390625
0.23650000000000002	-0.0	-0.0	-0.0	5.172906398773193	63.72856521606445	-378.9595031738281	-4.790382385253906	-62.267539978027344	-383.7131958007813	-0.0	-0.0	-0.0	-0.0	-0.0	-0.0	63922.55078125	-24484.40234375	1879.2755126953125
0.23700000000000002	-0.0	-0.0	-0.0	4.459201335906982	63.6380500793457	-373.3133239746094	-4.790698051452637	-62.62165069580078	-386.1592102050781	-0.0	-0.0	-0.0	-0.0	-0.0	-0.0	64209.53515625	-25122.087890625	1880.02978515625
0.23750000000000002	-0.0	-0.0	-0.0	3.746173143386841	63.28191757202149	-374.0184631347656	-4.43526554107666	-63.50547790527344	-389.9991455078125	-0.0	-0.0	-0.0	-0.0	-0.0	-0.0	64920.6328125	-25450.21484375	2204.968994140625
